<svg width="44" height="34" viewBox="0 0 44 34" fill="none" xmlns="http://www.w3.org/2000/svg">
<path d="M37.017 2.77093C34.2462 1.47926 31.2462 0.541762 28.1212 9.58296e-05C28.0938 -0.000780427 28.0665 0.00436141 28.0413 0.0151599C28.0161 0.0259584 27.9936 0.0421513 27.9753 0.0625963C27.6003 0.750096 27.1628 1.64593 26.8712 2.33343C23.5566 1.83343 20.1858 1.83343 16.8712 2.33343C16.5795 1.6251 16.142 0.750096 15.7462 0.0625963C15.7253 0.0209296 15.6628 9.58296e-05 15.6003 9.58296e-05C12.4753 0.541762 9.49617 1.47926 6.70451 2.77093C6.68367 2.77093 6.66284 2.79176 6.64201 2.8126C0.975342 11.2918 -0.587158 19.5418 0.183675 27.7084C0.183675 27.7501 0.204508 27.7918 0.246175 27.8126C3.99617 30.5626 7.60034 32.2293 11.1628 33.3334C11.2253 33.3543 11.2878 33.3334 11.3087 33.2918C12.142 32.1459 12.892 30.9376 13.5378 29.6668C13.5795 29.5834 13.5378 29.5001 13.4545 29.4793C12.267 29.0209 11.142 28.4793 10.0378 27.8543C9.95451 27.8126 9.95451 27.6876 10.017 27.6251C10.2462 27.4584 10.4753 27.2709 10.7045 27.1043C10.7462 27.0626 10.8087 27.0626 10.8503 27.0834C18.017 30.3543 25.7462 30.3543 32.8295 27.0834C32.8712 27.0626 32.9337 27.0626 32.9753 27.1043C33.2045 27.2918 33.4337 27.4584 33.6628 27.6459C33.7462 27.7084 33.7462 27.8334 33.642 27.8751C32.5587 28.5209 31.4128 29.0418 30.2253 29.5001C30.142 29.5209 30.1212 29.6251 30.142 29.6876C30.8087 30.9584 31.5587 32.1668 32.3712 33.3126C32.4337 33.3334 32.4962 33.3543 32.5587 33.3334C36.142 32.2293 39.7462 30.5626 43.4962 27.8126C43.5378 27.7918 43.5587 27.7501 43.5587 27.7084C44.4753 18.2709 42.0378 10.0834 37.1003 2.8126C37.0795 2.79176 37.0587 2.77093 37.017 2.77093ZM14.6212 22.7293C12.4753 22.7293 10.6837 20.7501 10.6837 18.3126C10.6837 15.8751 12.4337 13.8959 14.6212 13.8959C16.8295 13.8959 18.5795 15.8959 18.5587 18.3126C18.5587 20.7501 16.8087 22.7293 14.6212 22.7293ZM29.142 22.7293C26.9962 22.7293 25.2045 20.7501 25.2045 18.3126C25.2045 15.8751 26.9545 13.8959 29.142 13.8959C31.3503 13.8959 33.1003 15.8959 33.0795 18.3126C33.0795 20.7501 31.3503 22.7293 29.142 22.7293Z" fill="black"/>
</svg>
