<svg width="21" height="21" viewBox="0 0 21 21" fill="none" xmlns="http://www.w3.org/2000/svg">
<path d="M6.3 15.75H14.7C14.9975 15.75 15.247 15.6492 15.4486 15.4476C15.6502 15.246 15.7507 14.9968 15.75 14.7C15.75 14.4025 15.6492 14.1529 15.4476 13.9513C15.246 13.7497 14.9968 13.6493 14.7 13.65H6.3C6.0025 13.65 5.75295 13.7508 5.55135 13.9524C5.34975 14.154 5.2493 14.4032 5.25 14.7C5.25 14.9975 5.3508 15.247 5.5524 15.4486C5.754 15.6502 6.0032 15.7507 6.3 15.75ZM9.45 8.5575L8.505 7.63875C8.3125 7.44625 8.0717 7.35 7.7826 7.35C7.4935 7.35 7.2443 7.455 7.035 7.665C6.8425 7.8575 6.74625 8.1025 6.74625 8.4C6.74625 8.6975 6.8425 8.9425 7.035 9.135L9.765 11.865C9.975 12.075 10.22 12.18 10.5 12.18C10.78 12.18 11.025 12.075 11.235 11.865L13.965 9.135C14.1575 8.9425 14.2579 8.7017 14.2663 8.4126C14.2747 8.1235 14.1743 7.8743 13.965 7.665C13.7725 7.4725 13.5317 7.3717 13.2426 7.3626C12.9535 7.3535 12.7043 7.44555 12.495 7.63875L11.55 8.5575V5.25C11.55 4.9525 11.4492 4.70295 11.2476 4.50135C11.046 4.29975 10.7968 4.1993 10.5 4.2C10.2025 4.2 9.95295 4.3008 9.75135 4.5024C9.54975 4.704 9.4493 4.9532 9.45 5.25V8.5575ZM10.5 21C9.0475 21 7.6825 20.7242 6.405 20.1726C5.1275 19.621 4.01625 18.873 3.07125 17.9287C2.12625 16.9837 1.3783 15.8725 0.8274 14.595C0.2765 13.3175 0.0007 11.9525 0 10.5C0 9.0475 0.2758 7.6825 0.8274 6.405C1.379 5.1275 2.12695 4.01625 3.07125 3.07125C4.01625 2.12625 5.1275 1.3783 6.405 0.8274C7.6825 0.2765 9.0475 0.0007 10.5 0C11.9525 0 13.3175 0.2758 14.595 0.8274C15.8725 1.379 16.9837 2.12695 17.9287 3.07125C18.8737 4.01625 19.622 5.1275 20.1736 6.405C20.7252 7.6825 21.0007 9.0475 21 10.5C21 11.9525 20.7242 13.3175 20.1726 14.595C19.621 15.8725 18.873 16.9837 17.9287 17.9287C16.9837 18.8737 15.8725 19.622 14.595 20.1736C13.3175 20.7252 11.9525 21.0007 10.5 21ZM10.5 18.9C12.845 18.9 14.8312 18.0862 16.4587 16.4587C18.0862 14.8312 18.9 12.845 18.9 10.5C18.9 8.155 18.0862 6.16875 16.4587 4.54125C14.8312 2.91375 12.845 2.1 10.5 2.1C8.155 2.1 6.16875 2.91375 4.54125 4.54125C2.91375 6.16875 2.1 8.155 2.1 10.5C2.1 12.845 2.91375 14.8312 4.54125 16.4587C6.16875 18.0862 8.155 18.9 10.5 18.9Z" fill="#D9D9D9"/>
</svg>
