<svg width="626" height="602" viewBox="0 0 626 602" fill="none" xmlns="http://www.w3.org/2000/svg">
<path fill-rule="evenodd" clip-rule="evenodd" d="M73.1171 383.747C36.5665 274.324 91.3705 154.934 188.548 92.758C275.72 36.9835 383.772 69.9556 466.614 131.981C551.619 195.627 624.232 292.496 589.22 392.751C554.275 492.814 437.159 521.624 331.186 519.775C223.694 517.9 107.178 485.716 73.1171 383.747Z" fill="#C4C4C4" fill-opacity="0.1"/>
<g clip-path="url(#clip0_91_2)">
<path d="M298.977 428.932H249.499C248.251 428.932 247.236 427.917 247.236 426.67C247.236 425.423 248.251 424.408 249.499 424.408H298.977C300.225 424.408 301.239 425.423 301.239 426.67C301.239 427.918 300.225 428.932 298.977 428.932Z" fill="#F1C159"/>
<path d="M210.611 441.042C210.611 441.449 210.937 441.775 211.344 441.775H337.132C337.538 441.775 337.864 441.449 337.864 441.042C337.864 440.636 337.538 440.309 337.132 440.309H211.344C210.937 440.309 210.611 440.636 210.611 441.042Z" fill="#3F3D56"/>
<path d="M476.004 293.408C498.108 293.408 516.026 275.49 516.026 253.386C516.026 231.282 498.108 213.363 476.004 213.363C453.9 213.363 435.981 231.282 435.981 253.386C435.981 275.49 453.9 293.408 476.004 293.408Z" fill="#D85D11"/>
<path d="M177 491.616C177 492.022 177.326 492.348 177.733 492.348H499.323C499.73 492.348 500.056 492.022 500.056 491.616C500.056 491.209 499.73 490.883 499.323 490.883H177.733C177.326 490.883 177 491.209 177 491.616Z" fill="#3F3D56"/>
<path d="M181.652 442.134L180.623 441.007L281.027 349.389L317.2 365.605L356.262 298.617L388.356 283.147L418.091 332.706C434.145 291.145 474.406 247.662 522.649 203.546L523.835 204.507C478.588 247.826 439.875 291.343 417.904 335.363L390.401 289.388C389.101 287.216 386.371 286.377 384.076 287.445C366.533 295.607 351.901 308.931 342.136 325.634L317.667 367.486L312.081 364.982C293.401 356.608 271.533 360.118 256.411 373.917L181.652 442.134Z" fill="#3F3D56"/>
<path d="M524.912 211.887L523.388 211.993L520.928 206.662L515.421 205.544L515.207 204.031L524.285 202.741L524.912 211.887Z" fill="#3F3D56"/>
<path d="M368.298 244.505L373.695 223.756L394.721 222.745L401.011 251.346L368.298 244.505Z" fill="#FFB6B6"/>
<path opacity="0.1" d="M368.298 244.505L373.695 223.756L394.721 222.745L401.011 251.346L368.298 244.505Z" fill="black"/>
<path d="M382.133 235.368C396.149 235.368 407.512 224.006 407.512 209.99C407.512 195.974 396.149 184.611 382.133 184.611C368.117 184.611 356.755 195.974 356.755 209.99C356.755 224.006 368.117 235.368 382.133 235.368Z" fill="#FFB6B6"/>
<path d="M396.136 215.361C396.136 215.361 386.495 196.26 375.199 197.363C363.903 198.465 357.952 199.807 357.952 199.807C357.952 199.807 354.599 184.929 370.386 179.207C370.386 179.207 350.314 159.421 374.211 149.715C398.108 140.009 411.48 152.388 411.48 152.388C411.48 152.388 429.169 170.047 406.891 183.245C406.891 183.245 423.433 205.497 403.405 223.838C403.405 223.838 407.884 208.996 403.21 211.733C398.536 214.47 396.136 215.361 396.136 215.361Z" fill="#2F2E41"/>
<path d="M354.133 349.445L350.757 352.68L326.37 404.971L323.7 491.465H364.674L383.895 448.632L396.846 491.051H433.687L442.228 414.048L419.27 359.589L354.133 349.445Z" fill="#2F2E41"/>
<path d="M396.579 242.396H369.215L339.45 258.414L346.391 289.38C346.391 289.38 344.789 308.067 348.527 321.949C352.264 335.83 350.662 353.983 350.662 353.983L419.27 359.589L421.405 296.588L420.337 254.409L396.579 242.396Z" fill="#E6E6E6"/>
<path d="M343.989 258.681C343.989 258.681 327.438 259.215 324.768 269.893C322.098 280.571 319.963 335.563 319.963 335.563C319.963 335.563 321.565 368.195 339.45 352.68C357.336 337.165 355.735 290.181 355.735 290.181L343.989 258.681Z" fill="#E6E6E6"/>
<path d="M504.525 531.074H406.987C403.684 531.074 400.996 528.386 400.996 525.083V424.252C400.996 420.948 403.684 418.261 406.987 418.261H504.525C507.828 418.261 510.515 420.948 510.515 424.252V525.083C510.515 528.386 507.828 531.074 504.525 531.074Z" fill="white"/>
<path d="M504.525 531.689H406.987C403.344 531.689 400.381 528.726 400.381 525.083V424.252C400.381 420.609 403.344 417.645 406.987 417.645H504.525C508.167 417.645 511.131 420.609 511.131 424.252V525.083C511.131 528.726 508.167 531.689 504.525 531.689ZM406.987 418.877C404.023 418.877 401.612 421.288 401.612 424.252V525.083C401.612 528.047 404.023 530.458 406.987 530.458H504.525C507.488 530.458 509.9 528.047 509.9 525.083V424.252C509.9 421.288 507.488 418.877 504.525 418.877H406.987Z" fill="#3F3D56"/>
<path d="M459.605 504.584H451.566C450.587 504.584 449.791 503.97 449.791 503.214V468.603C449.791 467.847 450.587 467.233 451.566 467.233H459.605C460.584 467.233 461.38 467.847 461.38 468.603V503.214C461.38 503.97 460.584 504.584 459.605 504.584Z" fill="#F1C159"/>
<path d="M433.027 484.188C432.236 484.188 431.593 484.684 431.593 485.295V503.176C431.593 503.786 432.236 504.283 433.027 504.283H441.066C441.857 504.283 442.5 503.786 442.5 503.176V485.295C442.5 484.684 441.857 484.188 441.066 484.188H433.027Z" fill="#F1C159"/>
<path d="M478.144 504.584H470.105C469.126 504.584 468.33 503.97 468.33 503.214V446.493C468.33 445.737 469.126 445.123 470.105 445.123H478.144C479.122 445.123 479.919 445.737 479.919 446.493V503.214C479.919 503.97 479.122 504.584 478.144 504.584Z" fill="#F1C159"/>
<path d="M305.149 255.953H295.966C294.848 255.953 293.939 255.25 293.939 254.387V214.851C293.939 213.988 294.848 213.286 295.966 213.286H305.149C306.267 213.286 307.177 213.988 307.177 214.851V254.387C307.177 255.25 306.267 255.953 305.149 255.953Z" fill="#F1C159"/>
<path d="M274.79 232.654C273.887 232.654 273.152 233.221 273.152 233.918V254.343C273.152 255.04 273.887 255.608 274.79 255.608H283.973C284.876 255.608 285.611 255.04 285.611 254.343V233.918C285.611 233.221 284.876 232.654 283.973 232.654H274.79Z" fill="#F1C159"/>
<path d="M326.326 255.953H317.143C316.025 255.953 315.115 255.25 315.115 254.387V189.595C315.115 188.732 316.025 188.03 317.143 188.03H326.326C327.444 188.03 328.353 188.732 328.353 189.595V254.387C328.353 255.25 327.444 255.953 326.326 255.953Z" fill="#F1C159"/>
<path d="M440.803 432.932C445.559 432.476 448.834 426.049 448.119 418.573C447.874 415.582 446.916 412.694 445.326 410.15L444.41 401.688L444.55 401.646L446.854 361.526C447.39 352.198 443.697 343.031 436.583 336.974C432.351 333.371 427.836 331.546 424.933 336.099C420.116 343.654 426.355 374.796 430.453 392.501L432.042 411.421C430.963 414.222 430.57 417.24 430.897 420.224C431.611 427.698 436.046 433.387 440.803 432.932Z" fill="#FFB6B6"/>
<path d="M414.464 255.477C414.464 255.477 428.346 250.138 434.753 266.155C441.16 282.173 448.101 361.191 448.101 361.191L415.532 355.318L414.464 255.477Z" fill="#E6E6E6"/>
<path d="M223.852 247.643H205.16C203.913 247.643 202.898 246.628 202.898 245.38C202.898 244.133 203.913 243.119 205.16 243.119H223.852C225.099 243.119 226.114 244.133 226.114 245.38C226.114 246.628 225.099 247.643 223.852 247.643Z" fill="#E6E6E6"/>
<path d="M223.852 215.576H205.16C203.913 215.576 202.898 214.561 202.898 213.314C202.898 212.066 203.913 211.052 205.16 211.052H223.852C225.099 211.052 226.114 212.066 226.114 213.314C226.114 214.561 225.099 215.576 223.852 215.576Z" fill="#E6E6E6"/>
<path d="M223.852 192.451H205.16C203.913 192.451 202.898 191.436 202.898 190.189C202.898 188.941 203.913 187.927 205.16 187.927H223.852C225.099 187.927 226.114 188.941 226.114 190.189C226.114 191.436 225.099 192.451 223.852 192.451Z" fill="#E6E6E6"/>
<path d="M202.148 256.064C202.148 256.471 202.474 256.797 202.881 256.797H328.669C329.075 256.797 329.401 256.471 329.401 256.064C329.401 255.658 329.075 255.332 328.669 255.332H202.881C202.474 255.332 202.148 255.658 202.148 256.064Z" fill="#3F3D56"/>
<path d="M444.747 445.71C444.747 446.116 445.073 446.443 445.479 446.443H571.267C571.674 446.443 572 446.116 572 445.71C572 445.304 571.674 444.977 571.267 444.977H445.479C445.073 444.977 444.747 445.304 444.747 445.71Z" fill="#3F3D56"/>
<path d="M407.803 505.436C407.803 505.842 408.129 506.169 408.535 506.169H534.323C534.73 506.169 535.056 505.842 535.056 505.436C535.056 505.03 534.73 504.703 534.323 504.703H408.535C408.129 504.703 407.803 505.03 407.803 505.436Z" fill="#3F3D56"/>
<path d="M323.216 252.36C318.46 252.815 315.185 259.243 315.9 266.719C316.145 269.709 317.103 272.598 318.692 275.142L319.609 283.604L319.469 283.646L317.165 323.766C316.629 333.094 320.321 342.26 327.436 348.318C331.668 351.921 336.183 353.746 339.086 349.193C343.903 341.638 337.663 310.496 333.566 292.791L331.977 273.871C333.056 271.07 333.449 268.051 333.122 265.068C332.408 257.594 327.972 251.905 323.216 252.36Z" fill="#FFB6B6"/>
</g>
<defs>
<clipPath id="clip0_91_2">
<rect width="395" height="385.689" fill="white" transform="translate(177 146)"/>
</clipPath>
</defs>
</svg>
