<svg width="38" height="38" viewBox="0 0 38 38" fill="none" xmlns="http://www.w3.org/2000/svg">
<path d="M33.3333 29.1667H4.16667C1.86875 29.1667 0 31.0354 0 33.3333C0 35.6312 1.86875 37.5 4.16667 37.5H33.3333C35.6312 37.5 37.5 35.6312 37.5 33.3333C37.5 31.0354 35.6312 29.1667 33.3333 29.1667ZM33.3333 14.5833H4.16667C1.86875 14.5833 0 16.4521 0 18.75C0 21.0479 1.86875 22.9167 4.16667 22.9167H33.3333C35.6312 22.9167 37.5 21.0479 37.5 18.75C37.5 16.4521 35.6312 14.5833 33.3333 14.5833ZM33.3333 0H4.16667C1.86875 0 0 1.86875 0 4.16667C0 6.46458 1.86875 8.33333 4.16667 8.33333H33.3333C35.6312 8.33333 37.5 6.46458 37.5 4.16667C37.5 1.86875 35.6312 0 33.3333 0Z" fill="black"/>
</svg>
