<svg width="42" height="30" viewBox="0 0 42 30" fill="none" xmlns="http://www.w3.org/2000/svg">
<path d="M16.6667 20.8333L27.4792 14.5833L16.6667 8.33333V20.8333ZM40.75 4.52083C41.0208 5.5 41.2083 6.8125 41.3333 8.47917C41.4792 10.1458 41.5417 11.5833 41.5417 12.8333L41.6667 14.5833C41.6667 19.1458 41.3333 22.5 40.75 24.6458C40.2292 26.5208 39.0208 27.7292 37.1458 28.25C36.1667 28.5208 34.375 28.7083 31.625 28.8333C28.9167 28.9792 26.4375 29.0417 24.1458 29.0417L20.8333 29.1667C12.1042 29.1667 6.66667 28.8333 4.52083 28.25C2.64583 27.7292 1.4375 26.5208 0.916667 24.6458C0.645833 23.6667 0.458333 22.3542 0.333333 20.6875C0.1875 19.0208 0.125 17.5833 0.125 16.3333L0 14.5833C0 10.0208 0.333333 6.66667 0.916667 4.52083C1.4375 2.64583 2.64583 1.4375 4.52083 0.916667C5.5 0.645833 7.29167 0.458333 10.0417 0.333333C12.75 0.1875 15.2292 0.125 17.5208 0.125L20.8333 0C29.5625 0 35 0.333333 37.1458 0.916667C39.0208 1.4375 40.2292 2.64583 40.75 4.52083Z" fill="black"/>
</svg>
